<svg width="30" height="10" viewBox="0 0 30 10" fill="none" xmlns="http://www.w3.org/2000/svg">
<path fill-rule="evenodd" clip-rule="evenodd" d="M3.58925 1.00137C3.83939 0.999798 4.58282 0.929664 4.89772 2.04287C5.10985 2.79274 5.44774 4.02107 5.91141 5.72784H6.10024C6.59749 3.92844 6.93907 2.70011 7.12499 2.04287C7.44317 0.918068 8.23863 1.00139 8.55681 1.00139L11.0117 1.00139V8.99998H8.5096V4.28628H8.34183L6.94706 8.99998H5.06459L3.66983 4.28279H3.50204V8.99998H1V1.00139L3.58925 1.00137ZM14.6046 1.00139V5.71861H14.8041L16.5008 1.83967C16.8301 1.06775 17.532 1.00139 17.532 1.00139H19.9533V9H17.399V4.28279H17.1993L15.536 8.16172C15.2066 8.93015 14.4715 9 14.4715 9H12.0502V1.00139H14.6046ZM28.782 4.80238C28.4257 5.85994 27.3068 6.61735 26.068 6.61735H23.3894V9H20.9604V4.80238H28.782Z" fill="#0F754E"/>
<path fill-rule="evenodd" clip-rule="evenodd" d="M26.1852 1.00136H20.833C20.9604 2.78212 22.4245 4.30657 23.9401 4.30657H28.9509C29.24 2.82654 28.2446 1.00136 26.1852 1.00136Z" fill="url(#paint0_linear_28_170)"/>
<defs>
<linearGradient id="paint0_linear_28_170" x1="29" y1="3.08048" x2="20.833" y2="3.08048" gradientUnits="userSpaceOnUse">
<stop stop-color="#1F5CD7"/>
<stop offset="1" stop-color="#02AEFF"/>
</linearGradient>
</defs>
</svg>
