<svg width="30" height="10" viewBox="0 0 30 10" fill="none" xmlns="http://www.w3.org/2000/svg">
<g clip-path="url(#clip0_28_171)">
<path d="M17.1632 8.9304H12.8371V1.0693H17.1632V8.9304Z" fill="#FF5F00"/>
<path d="M13.1115 5.00001C13.1115 6.59723 13.8531 8.01389 14.9931 8.93056C14.1553 9.59722 13.0978 10 11.9441 10C9.21113 10 7 7.76389 7 5.00001C7 2.23615 9.21113 0 11.9441 0C13.0978 0 14.1553 0.402799 14.9931 1.06946C13.8531 1.97221 13.1115 3.40278 13.1115 5.00001Z" fill="#EB001B"/>
<path d="M23 5.00001C23 2.23615 20.7889 0 18.0559 0C16.9022 0 15.8447 0.402799 15.0069 1.06946C16.1606 1.9861 16.8885 3.40278 16.8885 5.00001C16.8885 6.59723 16.1468 8.01389 15.0069 8.93056C15.8447 9.59722 16.9022 10 18.0559 10C20.7889 10 23 7.75001 23 5.00001Z" fill="#F79E1B"/>
</g>
<defs>
<clipPath id="clip0_28_171">
<rect width="30" height="10" fill="white" transform="matrix(1 0 0 -1 0 10)"/>
</clipPath>
</defs>
</svg>
