<svg width="48" height="48" viewBox="0 0 48 48" fill="none" xmlns="http://www.w3.org/2000/svg">
<circle cx="24" cy="24" r="22" fill="white"/>
<g clip-path="url(#clip0_32_590)">
<path d="M15.75 15.75H18.5V18.5H15.75V15.75Z" fill="#FF8E14"/>
<path d="M21.25 13V21.25H13V13H21.25ZM19.875 14.375H14.375V19.875H19.875V14.375ZM18.5 29.5H15.75V32.25H18.5V29.5Z" fill="#FF8E14"/>
<path d="M21.25 26.75V35H13V26.75H21.25ZM14.375 28.125V33.625H19.875V28.125H14.375ZM29.5 15.75H32.25V18.5H29.5V15.75Z" fill="#FF8E14"/>
<path d="M26.75 13V21.25H35V13H26.75ZM33.625 14.375V19.875H28.125V14.375H33.625ZM24 14.375V13H25.375V15.75H24V18.5H22.625V14.375H24ZM24 21.25V18.5H25.375V21.25H24ZM21.25 24V22.625H22.625V21.25H24V24H25.375V22.625H32.25V24H26.75V25.375H22.625V24H21.25ZM21.25 24V25.375H15.75V24H14.375V25.375H13V22.625H17.125V24H21.25ZM35 25.375H33.625V22.625H35V25.375ZM33.625 25.375H32.25V28.125H35V26.75H33.625V25.375ZM28.125 25.375H30.875V26.75H29.5V28.125H28.125V25.375ZM30.875 29.5V28.125H29.5V29.5H28.125V30.875H25.375V32.25H29.5V29.5H30.875ZM30.875 29.5H35V30.875H32.25V32.25H30.875V29.5ZM25.375 28.125V29.5H26.75V26.75H22.625V28.125H25.375Z" fill="#FF8E14"/>
<path d="M22.625 29.5H24V33.625H29.5V35H22.625V29.5ZM35 32.25V35H30.875V33.625H33.625V32.25H35Z" fill="#FF8E14"/>
</g>
<defs>
<clipPath id="clip0_32_590">
<rect width="22" height="22" fill="white" transform="translate(13 13)"/>
</clipPath>
</defs>
</svg>
