<svg width="48" height="48" viewBox="0 0 48 48" fill="none" xmlns="http://www.w3.org/2000/svg">
<circle cx="24" cy="24" r="22" fill="white"/>
<path d="M34.2934 16.7336L24.7014 11.1876C24.4875 11.0647 24.2452 11 23.9987 11C23.7522 11 23.5099 11.0647 23.296 11.1876L13.704 16.7336C13.4902 16.8574 13.3127 17.0353 13.1891 17.2495C13.0656 17.4637 13.0004 17.7067 13 17.9542V29.0458C13 29.5468 13.2695 30.0135 13.704 30.2664L23.296 35.8125C23.5101 35.936 23.753 36.0007 24 36C24.2474 36 24.4902 35.9341 24.704 35.8125L34.296 30.2664C34.5097 30.1427 34.6872 29.9649 34.8107 29.7508C34.9343 29.5366 34.9995 29.2937 35 29.0463V17.9542C35 17.4538 34.7305 16.9865 34.296 16.7336H34.2934ZM24.2159 22.8123C24.1498 22.8504 24.0749 22.8704 23.9987 22.8704C23.9225 22.8704 23.8475 22.8504 23.7814 22.8123L14.4563 17.4211L23.7814 12.032C23.8479 11.9949 23.9227 11.9755 23.9987 11.9755C24.0747 11.9755 24.1495 11.9949 24.2159 12.032L33.5411 17.4222L24.2159 22.8123ZM23.296 23.6531C23.364 23.6924 23.4368 23.7257 23.5146 23.7531V34.8105L14.1894 29.423C14.1233 29.3849 14.0684 29.33 14.03 29.2639C13.9917 29.1978 13.9713 29.1228 13.9709 29.0463V18.2629L23.296 23.6531Z" fill="black"/>
</svg>
