<svg width="48" height="48" viewBox="0 0 48 48" fill="none" xmlns="http://www.w3.org/2000/svg">
<circle cx="24" cy="24" r="22" fill="white"/>
<path d="M13 16.0947L16.4357 22.1555V25.8524L13.004 31.9014L13 16.0947Z" fill="#5B57A2"/>
<path d="M26.1919 19.95L29.4113 18.0026L36 17.9966L26.1919 23.9265V19.95Z" fill="#D90751"/>
<path d="M26.1737 16.059L26.1919 24.0833L22.7481 21.995V10L26.1737 16.059Z" fill="#FAB718"/>
<path d="M36 17.9966L29.4113 18.0026L26.1737 16.059L22.7481 10L36 17.9966Z" fill="#ED6F26"/>
<path d="M26.1919 31.935V28.0418L22.7481 25.9931L22.75 38L26.1919 31.935Z" fill="#63B22F"/>
<path d="M29.4032 30.0053L16.4357 22.1555L13 16.0947L35.9861 29.9974L29.4032 30.0053Z" fill="#1487C9"/>
<path d="M22.7502 38L26.1919 31.935L29.4032 30.0053L35.9861 29.9974L22.7502 38Z" fill="#017F36"/>
<path d="M13.004 31.9014L22.7762 25.9934L19.4908 24.004L16.4357 25.8524L13.004 31.9014Z" fill="#984995"/>
</svg>
