<svg width="48" height="48" viewBox="0 0 48 48" fill="none" xmlns="http://www.w3.org/2000/svg">
<circle cx="24" cy="24" r="22" fill="white"/>
<path d="M28.6701 13.7188C22.4121 13.7188 17.3833 18.5703 17.3833 24.5C17.3833 30.4786 22.4616 35.2812 28.6686 35.2812C34.8756 35.2812 39.9583 30.4297 39.9583 24.5C39.9583 18.5703 34.8771 13.7188 28.6701 13.7188ZM28.6701 28.5185C26.3616 28.5185 24.4641 26.7051 24.4641 24.5C24.4641 22.2949 26.3616 20.4815 28.6701 20.4815C30.9786 20.4815 32.8768 22.2949 32.8768 24.5C32.8251 26.7051 30.9786 28.5185 28.6701 28.5185Z" fill="#8B3FFD"/>
<path d="M17.3833 16.8511V32.5328H13.3843L8.25433 16.8511H17.3833Z" fill="#8B3FFD"/>
</svg>
