<svg width="48" height="48" viewBox="0 0 48 48" fill="none" xmlns="http://www.w3.org/2000/svg">
<circle cx="24" cy="24" r="22" fill="white"/>
<path d="M13.5 31.5C13.5 31.6989 13.579 31.8897 13.7197 32.0303C13.8603 32.171 14.0511 32.25 14.25 32.25H33.75C33.9489 32.25 34.1397 32.171 34.2803 32.0303C34.421 31.8897 34.5 31.6989 34.5 31.5V22.4062H13.5V31.5ZM16.5938 25.0312C16.5938 24.9318 16.6333 24.8364 16.7036 24.7661C16.7739 24.6958 16.8693 24.6562 16.9688 24.6562H21.2812C21.3807 24.6562 21.4761 24.6958 21.5464 24.7661C21.6167 24.8364 21.6562 24.9318 21.6562 25.0312V28.0312C21.6562 28.1307 21.6167 28.2261 21.5464 28.2964C21.4761 28.3667 21.3807 28.4062 21.2812 28.4062H16.9688C16.8693 28.4062 16.7739 28.3667 16.7036 28.2964C16.6333 28.2261 16.5938 28.1307 16.5938 28.0312V25.0312ZM33.75 15.75H14.25C14.0511 15.75 13.8603 15.829 13.7197 15.9697C13.579 16.1103 13.5 16.3011 13.5 16.5V19.5938H34.5V16.5C34.5 16.3011 34.421 16.1103 34.2803 15.9697C34.1397 15.829 33.9489 15.75 33.75 15.75Z" fill="#FF8E14"/>
</svg>
