<svg width="30" height="10" viewBox="0 0 30 10" fill="none" xmlns="http://www.w3.org/2000/svg">
<path d="M14.3784 1.15901L12.7079 9.86393H10.6879L12.359 1.15901H14.3784ZM22.8776 6.77949L23.9409 3.51111L24.5528 6.77949H22.8776ZM25.1316 9.86393H27L25.3691 1.15901H23.6446C23.2568 1.15901 22.9299 1.41061 22.785 1.79765L19.7535 9.86393H21.8747L22.296 8.56361H24.8878L25.1316 9.86393ZM19.859 7.02178C19.8676 4.72436 17.009 4.59774 17.0287 3.57146C17.0348 3.25912 17.3017 2.92707 17.8855 2.84221C18.175 2.79995 18.9726 2.76768 19.877 3.23179L20.2319 1.38592C19.7459 1.18931 19.1205 1 18.3423 1C16.3455 1 14.9403 2.18327 14.9285 3.87749C14.9156 5.13068 15.9315 5.82996 16.6968 6.24636C17.4842 6.67285 17.7483 6.94683 17.7454 7.32832C17.7397 7.91229 17.1174 8.17009 16.5357 8.18016C15.5204 8.19754 14.9312 7.87387 14.4614 7.63046L14.0954 9.53748C14.5674 9.77889 15.4386 9.98947 16.3419 10C18.4643 10 19.8524 8.83147 19.859 7.02178ZM11.492 1.15901L8.21897 9.86393H6.08359L4.47295 2.91699C4.37512 2.48905 4.29018 2.33238 3.9928 2.15216C3.50729 1.85845 2.7054 1.58304 2 1.41201L2.04793 1.15901H5.48534C5.92349 1.15901 6.31733 1.48414 6.4168 2.04662L7.26745 7.08377L9.36983 1.15901H11.492Z" fill="#1434CB"/>
</svg>
